<?xml version="1.0" encoding="UTF-8"?>
<svg xmlns="http://www.w3.org/2000/svg" viewBox="0 0 1024 1024" role="img" aria-labelledby="title desc">
<title id="title">Gentle Vanguard GV — Master Gradient</title>
<desc id="desc">Primary centered GV monogram, transparent background.</desc>
<defs>
  <linearGradient id="gvGradient" x1="0%" y1="100%" x2="100%" y2="0%">
    <stop offset="0%" stop-color="#7A5CFF"/>
    <stop offset="100%" stop-color="#2BD4FF"/>
  </linearGradient>
</defs><path d="M 305.75 320 C 230 320 112 400 112 511.94 C 112 622 230 701.06 293.25 701.06 L 412 701.06 Q 449.5 701.06 449.5 663 L 405.75 604.19 L 282 601.06 Q 212 601.06 212 531 L 212 489.81 Q 212 419.81 282 419.81 L 493.25 419.81 L 562 322.94 Z M 770 320 L 910 320 L 750 700 L 615 700 L 365 515 Q 345 495 365 475 L 520 435 L 595 590 Z" fill="url(#gvGradient)" fill-rule="nonzero"/>
</svg>
